<svg xmlns="http://www.w3.org/2000/svg" xmlns:xlink="http://www.w3.org/1999/xlink" width="600" height="270" viewBox="0 0 600 270"><defs>
<linearGradient id="bg" x1="0" y1="0" x2="1" y2="1"><stop offset="0" stop-color="#1b2040"/><stop offset="1" stop-color="#0f2b38"/></linearGradient>
<linearGradient id="brand" x1="0" y1="0" x2="1" y2="1"><stop offset="0" stop-color="#4338ca"/><stop offset="0.55" stop-color="#2563eb"/><stop offset="1" stop-color="#06b6d4"/></linearGradient>
<linearGradient id="brandH" x1="0" y1="0" x2="1" y2="0"><stop offset="0" stop-color="#4338ca"/><stop offset="0.55" stop-color="#2563eb"/><stop offset="1" stop-color="#06b6d4"/></linearGradient>
<pattern id="mesh" width="5" height="5" patternUnits="userSpaceOnUse"><rect width="5" height="5" fill="#c09a57"/><circle cx="2.5" cy="2.5" r="1.25" fill="#e9d4a4" opacity="0.8"/></pattern>
<clipPath id="frame"><rect x="0" y="0" width="600" height="270" rx="18"/></clipPath>
</defs><g clip-path="url(#frame)"><rect width="600" height="270" fill="url(#bg)"/><circle cx="560" cy="30" r="90" fill="#312e81" opacity="0.35"/><circle cx="40" cy="260" r="70" fill="#155e75" opacity="0.3"/><circle cx="330.0" cy="300" r="60" fill="#312e81" opacity="0.18"/><rect x="41" y="74" width="380" height="186" rx="12" fill="#000000" opacity="0.35" /><rect x="40" y="70" width="380" height="186" rx="12" fill="#1e293b" stroke="#3e4f69" stroke-width="1" /><text x="56" y="94" font-family="Inter, 'Segoe UI', 'Liberation Sans', Arial, sans-serif" font-size="11" font-weight="700" fill="#e2e8f0" text-anchor="start">Models in US East (N. Virginia)</text><rect x="50" y="108" width="360" height="30" rx="7" fill="#1e3a8a" stroke="#60a5fa" stroke-width="1.4" /><circle cx="68" cy="123" r="8" fill="url(#brand)"/><text x="84" y="121" font-family="Inter, 'Segoe UI', 'Liberation Sans', Arial, sans-serif" font-size="10.5" font-weight="700" fill="#e2e8f0" text-anchor="start">Claude Sonnet</text><text x="84" y="133" font-family="Inter, 'Segoe UI', 'Liberation Sans', Arial, sans-serif" font-size="8.5" font-weight="500" fill="#94a3b8" text-anchor="start">Anthropic</text><rect x="292" y="114" width="43.55" height="18" rx="9.0" fill="#14532d" /><text x="313.775" y="126.42" font-family="Inter, 'Segoe UI', 'Liberation Sans', Arial, sans-serif" font-size="9.5" font-weight="600" fill="#22c55e" text-anchor="middle">Ready</text><rect x="50" y="144" width="360" height="30" rx="7" fill="#273449" /><circle cx="68" cy="159" r="8" fill="#334155"/><text x="84" y="157" font-family="Inter, 'Segoe UI', 'Liberation Sans', Arial, sans-serif" font-size="10.5" font-weight="700" fill="#e2e8f0" text-anchor="start">Claude Opus</text><text x="84" y="169" font-family="Inter, 'Segoe UI', 'Liberation Sans', Arial, sans-serif" font-size="8.5" font-weight="500" fill="#94a3b8" text-anchor="start">Anthropic</text><rect x="292" y="150" width="87.63" height="18" rx="9.0" fill="#78350f" /><text x="335.815" y="162.42" font-family="Inter, 'Segoe UI', 'Liberation Sans', Arial, sans-serif" font-size="9.5" font-weight="600" fill="#f59e0b" text-anchor="middle">One-time form</text><rect x="50" y="180" width="360" height="30" rx="7" fill="#273449" /><circle cx="68" cy="195" r="8" fill="#334155"/><text x="84" y="193" font-family="Inter, 'Segoe UI', 'Liberation Sans', Arial, sans-serif" font-size="10.5" font-weight="700" fill="#e2e8f0" text-anchor="start">Amazon Nova Pro</text><text x="84" y="205" font-family="Inter, 'Segoe UI', 'Liberation Sans', Arial, sans-serif" font-size="8.5" font-weight="500" fill="#94a3b8" text-anchor="start">Amazon</text><rect x="292" y="186" width="43.55" height="18" rx="9.0" fill="#14532d" /><text x="313.775" y="198.42" font-family="Inter, 'Segoe UI', 'Liberation Sans', Arial, sans-serif" font-size="9.5" font-weight="600" fill="#22c55e" text-anchor="middle">Ready</text><rect x="50" y="216" width="360" height="30" rx="7" fill="#273449" /><circle cx="68" cy="231" r="8" fill="#334155"/><text x="84" y="229" font-family="Inter, 'Segoe UI', 'Liberation Sans', Arial, sans-serif" font-size="10.5" font-weight="700" fill="#e2e8f0" text-anchor="start">Llama 4 Maverick</text><text x="84" y="241" font-family="Inter, 'Segoe UI', 'Liberation Sans', Arial, sans-serif" font-size="8.5" font-weight="500" fill="#94a3b8" text-anchor="start">Meta</text><rect x="292" y="222" width="82.11999999999999" height="18" rx="9.0" fill="#78350f" /><text x="333.06" y="234.42" font-family="Inter, 'Segoe UI', 'Liberation Sans', Arial, sans-serif" font-size="9.5" font-weight="600" fill="#f59e0b" text-anchor="middle">Accept terms</text><rect x="441" y="96" width="136" height="128" rx="12" fill="#000000" opacity="0.35" /><rect x="440" y="92" width="136" height="128" rx="12" fill="#1e293b" stroke="#3e4f69" stroke-width="1" /><text x="508" y="114" font-family="Inter, 'Segoe UI', 'Liberation Sans', Arial, sans-serif" font-size="11.5" font-weight="700" fill="#e2e8f0" text-anchor="middle">DSH checks</text><circle cx="456" cy="132" r="6.5" fill="#22c55e"/><path d="M453.075,132.13 L455.35,134.47 L459.12,129.725" fill="none" stroke="#ffffff" stroke-width="1.6" stroke-linecap="round" stroke-linejoin="round"/><text x="468" y="135.5" font-family="Inter, 'Segoe UI', 'Liberation Sans', Arial, sans-serif" font-size="8.8" font-weight="600" fill="#e2e8f0" text-anchor="start">Is it in this Region?</text><circle cx="456" cy="153" r="6.5" fill="#22c55e"/><path d="M453.075,153.13 L455.35,155.47 L459.12,150.725" fill="none" stroke="#ffffff" stroke-width="1.6" stroke-linecap="round" stroke-linejoin="round"/><text x="468" y="156.5" font-family="Inter, 'Segoe UI', 'Liberation Sans', Arial, sans-serif" font-size="8.8" font-weight="600" fill="#e2e8f0" text-anchor="start">Terms accepted?</text><circle cx="456" cy="174" r="6.5" fill="#22c55e"/><path d="M453.075,174.13 L455.35,176.47 L459.12,171.725" fill="none" stroke="#ffffff" stroke-width="1.6" stroke-linecap="round" stroke-linejoin="round"/><text x="468" y="177.5" font-family="Inter, 'Segoe UI', 'Liberation Sans', Arial, sans-serif" font-size="8.8" font-weight="600" fill="#e2e8f0" text-anchor="start">Form on file?</text><circle cx="456" cy="195" r="6.5" fill="#22c55e"/><path d="M453.075,195.13 L455.35,197.47 L459.12,192.725" fill="none" stroke="#ffffff" stroke-width="1.6" stroke-linecap="round" stroke-linejoin="round"/><text x="468" y="198.5" font-family="Inter, 'Segoe UI', 'Liberation Sans', Arial, sans-serif" font-size="8.8" font-weight="600" fill="#e2e8f0" text-anchor="start">You're allowed?</text><text x="30" y="38" font-family="Inter, 'Segoe UI', 'Liberation Sans', Arial, sans-serif" font-size="17" font-weight="700" fill="#e2e8f0" text-anchor="start">Pick a model</text><text x="30" y="56" font-family="Inter, 'Segoe UI', 'Liberation Sans', Arial, sans-serif" font-size="11" font-weight="500" fill="#94a3b8" text-anchor="start">DSH shows what each one needs before you can use it — and does it for you.</text></g></svg>