<svg xmlns="http://www.w3.org/2000/svg" xmlns:xlink="http://www.w3.org/1999/xlink" width="600" height="270" viewBox="0 0 600 270"><defs>
<linearGradient id="bg" x1="0" y1="0" x2="1" y2="1"><stop offset="0" stop-color="#1b2040"/><stop offset="1" stop-color="#0f2b38"/></linearGradient>
<linearGradient id="brand" x1="0" y1="0" x2="1" y2="1"><stop offset="0" stop-color="#4338ca"/><stop offset="0.55" stop-color="#2563eb"/><stop offset="1" stop-color="#06b6d4"/></linearGradient>
<linearGradient id="brandH" x1="0" y1="0" x2="1" y2="0"><stop offset="0" stop-color="#4338ca"/><stop offset="0.55" stop-color="#2563eb"/><stop offset="1" stop-color="#06b6d4"/></linearGradient>
<pattern id="mesh" width="5" height="5" patternUnits="userSpaceOnUse"><rect width="5" height="5" fill="#c09a57"/><circle cx="2.5" cy="2.5" r="1.25" fill="#e9d4a4" opacity="0.8"/></pattern>
<clipPath id="frame"><rect x="0" y="0" width="600" height="270" rx="18"/></clipPath>
</defs><g clip-path="url(#frame)"><rect width="600" height="270" fill="url(#bg)"/><circle cx="560" cy="30" r="90" fill="#312e81" opacity="0.35"/><circle cx="40" cy="260" r="70" fill="#155e75" opacity="0.3"/><circle cx="330.0" cy="300" r="60" fill="#312e81" opacity="0.18"/><rect x="41" y="72" width="300" height="126" rx="8" fill="#000000" opacity="0.35" /><rect x="40" y="68" width="300" height="126" rx="8" fill="#1f2937" /><rect x="47" y="75" width="286" height="112" rx="3" fill="#0b1220" /><text x="62" y="96" font-family="'JetBrains Mono', 'Cascadia Mono', Consolas, 'DejaVu Sans Mono', monospace" font-size="9" font-weight="700" fill="#94a3b8" text-anchor="start">GNU GRUB</text><text x="62" y="113" font-family="'JetBrains Mono', 'Cascadia Mono', Consolas, 'DejaVu Sans Mono', monospace" font-size="9.5" font-weight="700" fill="#e2e8f0" text-anchor="start">DGX Spark Installation Options</text><rect x="58" y="122" width="264" height="17" rx="2" fill="#e2e8f0" /><text x="62" y="134.5" font-family="'JetBrains Mono', 'Cascadia Mono', Consolas, 'DejaVu Sans Mono', monospace" font-size="9.5" font-weight="700" fill="#0f172a" text-anchor="start">&gt; Install DGX OS for DGX Spark</text><text x="62" y="153" font-family="'JetBrains Mono', 'Cascadia Mono', Consolas, 'DejaVu Sans Mono', monospace" font-size="9.5" font-weight="500" fill="#94a3b8" text-anchor="start">  Boot from the next device</text><text x="62" y="176" font-family="'JetBrains Mono', 'Cascadia Mono', Consolas, 'DejaVu Sans Mono', monospace" font-size="8.5" font-weight="500" fill="#64748b" text-anchor="start">Use ↑ ↓ and Enter</text><rect x="181.0" y="194" width="18" height="16" rx="0" fill="#475569" /><rect x="154.0" y="208" width="72" height="6" rx="3" fill="#64748b" /><rect x="57" y="228" width="268" height="40" rx="6" fill="#000000" opacity="0.35" /><rect x="56" y="224" width="268" height="40" rx="6" fill="#334155" stroke="#3e4f69" stroke-width="1" /><rect x="62.0" y="229" width="22.9" height="13" rx="2.5" fill="url(#brand)" /><text x="73.45" y="238.4" font-family="Inter, 'Segoe UI', 'Liberation Sans', Arial, sans-serif" font-size="7" font-weight="700" fill="#ffffff" text-anchor="middle">Esc</text><rect x="87.9" y="229" width="22.9" height="13" rx="2.5" fill="#1e293b" stroke="#3e4f69" stroke-width="1" /><text x="99.35000000000001" y="238.4" font-family="Inter, 'Segoe UI', 'Liberation Sans', Arial, sans-serif" font-size="6.5" font-weight="500" fill="#94a3b8" text-anchor="middle">F1</text><rect x="113.8" y="229" width="22.9" height="13" rx="2.5" fill="#1e293b" stroke="#3e4f69" stroke-width="1" /><text x="125.25" y="238.4" font-family="Inter, 'Segoe UI', 'Liberation Sans', Arial, sans-serif" font-size="6.5" font-weight="500" fill="#94a3b8" text-anchor="middle">F2</text><rect x="139.7" y="229" width="22.9" height="13" rx="2.5" fill="#1e293b" stroke="#3e4f69" stroke-width="1" /><text x="151.14999999999998" y="238.4" font-family="Inter, 'Segoe UI', 'Liberation Sans', Arial, sans-serif" font-size="6.5" font-weight="500" fill="#94a3b8" text-anchor="middle">F3</text><rect x="165.6" y="229" width="22.9" height="13" rx="2.5" fill="#1e293b" stroke="#3e4f69" stroke-width="1" /><text x="177.04999999999998" y="238.4" font-family="Inter, 'Segoe UI', 'Liberation Sans', Arial, sans-serif" font-size="6.5" font-weight="500" fill="#94a3b8" text-anchor="middle">F4</text><rect x="191.5" y="229" width="22.9" height="13" rx="2.5" fill="#1e293b" stroke="#3e4f69" stroke-width="1" /><text x="202.95" y="238.4" font-family="Inter, 'Segoe UI', 'Liberation Sans', Arial, sans-serif" font-size="6.5" font-weight="500" fill="#94a3b8" text-anchor="middle">F5</text><rect x="217.39999999999998" y="229" width="22.9" height="13" rx="2.5" fill="#1e293b" stroke="#3e4f69" stroke-width="1" /><text x="228.84999999999997" y="238.4" font-family="Inter, 'Segoe UI', 'Liberation Sans', Arial, sans-serif" font-size="6.5" font-weight="500" fill="#94a3b8" text-anchor="middle">F6</text><rect x="243.29999999999998" y="229" width="22.9" height="13" rx="2.5" fill="#1e293b" stroke="#3e4f69" stroke-width="1" /><text x="254.74999999999997" y="238.4" font-family="Inter, 'Segoe UI', 'Liberation Sans', Arial, sans-serif" font-size="6.5" font-weight="500" fill="#94a3b8" text-anchor="middle">F7</text><rect x="269.2" y="229" width="22.9" height="13" rx="2.5" fill="#1e293b" stroke="#3e4f69" stroke-width="1" /><text x="280.65" y="238.4" font-family="Inter, 'Segoe UI', 'Liberation Sans', Arial, sans-serif" font-size="6.5" font-weight="500" fill="#94a3b8" text-anchor="middle">F8</text><rect x="295.1" y="229" width="22.9" height="13" rx="2.5" fill="url(#brand)" /><text x="306.55" y="238.4" font-family="Inter, 'Segoe UI', 'Liberation Sans', Arial, sans-serif" font-size="7" font-weight="700" fill="#ffffff" text-anchor="middle">Del</text><rect x="62.0" y="245" width="22.9" height="13" rx="2.5" fill="#1e293b" stroke="#3e4f69" stroke-width="1" /><rect x="87.9" y="245" width="22.9" height="13" rx="2.5" fill="#1e293b" stroke="#3e4f69" stroke-width="1" /><rect x="113.8" y="245" width="22.9" height="13" rx="2.5" fill="#1e293b" stroke="#3e4f69" stroke-width="1" /><rect x="139.7" y="245" width="22.9" height="13" rx="2.5" fill="#1e293b" stroke="#3e4f69" stroke-width="1" /><rect x="165.6" y="245" width="22.9" height="13" rx="2.5" fill="#1e293b" stroke="#3e4f69" stroke-width="1" /><rect x="191.5" y="245" width="22.9" height="13" rx="2.5" fill="#1e293b" stroke="#3e4f69" stroke-width="1" /><rect x="217.39999999999998" y="245" width="22.9" height="13" rx="2.5" fill="#1e293b" stroke="#3e4f69" stroke-width="1" /><rect x="243.29999999999998" y="245" width="22.9" height="13" rx="2.5" fill="#1e293b" stroke="#3e4f69" stroke-width="1" /><rect x="269.2" y="245" width="22.9" height="13" rx="2.5" fill="#1e293b" stroke="#3e4f69" stroke-width="1" /><rect x="295.1" y="245" width="22.9" height="13" rx="2.5" fill="#1e293b" stroke="#3e4f69" stroke-width="1" /><ellipse cx="488.064" cy="257.32" rx="69.44" ry="6.4512" fill="#000000" opacity="0.5599999999999999"/><path d="M424,212 L437.44,200.8 L549.44,200.8 L536,212 Z" fill="#e6cf9f" stroke="#a88549" stroke-width="1" stroke-linecap="round" stroke-linejoin="round"/><path d="M536,212 L549.44,200.8 L549.44,241.12 L536,252.32 Z" fill="#a17c3f" stroke="#8a6a33" stroke-width="1" stroke-linecap="round" stroke-linejoin="round"/><rect x="424" y="212" width="112" height="40.32" rx="0" fill="#c9a462" stroke="#8a6a33" stroke-width="1" /><rect x="427" y="215" width="106" height="34.32" rx="0" fill="url(#mesh)" /><circle cx="527" cy="245.32" r="2.3" fill="#4ade80"/><circle cx="527" cy="245.32" r="4.5" fill="#4ade80" opacity="0.25"/><g transform="translate(541,218) rotate(0)"><rect x="10.080000000000002" y="0" width="32.480000000000004" height="13.440000000000001" rx="3.3600000000000003" fill="url(#brand)" /><rect x="0" y="2.24" width="10.080000000000002" height="8.96" rx="0.8400000000000001" fill="#cbd5e1" stroke="#94a3b8" stroke-width="1" /><rect x="4.48" y="4.48" width="2.24" height="1.6800000000000002" rx="0" fill="#64748b" /><rect x="4.48" y="7.280000000000001" width="2.24" height="1.6800000000000002" rx="0" fill="#64748b" /><circle cx="39.760000000000005" cy="6.720000000000001" r="1.4000000000000001" fill="#ffffff" opacity="0.35"/><text x="26.320000000000004" y="8.736" font-family="Inter, 'Segoe UI', 'Liberation Sans', Arial, sans-serif" font-size="4.48" font-weight="700" fill="#ffffff" text-anchor="middle" letter-spacing="0.5"></text></g><circle cx="376" cy="102" r="11" fill="url(#brand)"/><text x="376" y="106.2" font-family="Inter, 'Segoe UI', 'Liberation Sans', Arial, sans-serif" font-size="12" font-weight="700" fill="#ffffff" text-anchor="middle">1</text><text x="392" y="106.5" font-family="Inter, 'Segoe UI', 'Liberation Sans', Arial, sans-serif" font-size="11" font-weight="700" fill="#e2e8f0" text-anchor="start">Plug in the stick, keyboard</text><text x="392" y="120" font-family="Inter, 'Segoe UI', 'Liberation Sans', Arial, sans-serif" font-size="11" font-weight="700" fill="#e2e8f0" text-anchor="start">and screen</text><circle cx="376" cy="144" r="11" fill="url(#brand)"/><text x="376" y="148.2" font-family="Inter, 'Segoe UI', 'Liberation Sans', Arial, sans-serif" font-size="12" font-weight="700" fill="#ffffff" text-anchor="middle">2</text><text x="392" y="148.5" font-family="Inter, 'Segoe UI', 'Liberation Sans', Arial, sans-serif" font-size="11" font-weight="700" fill="#e2e8f0" text-anchor="start">Power on, tap Esc or Del</text><circle cx="376" cy="178" r="11" fill="url(#brand)"/><text x="376" y="182.2" font-family="Inter, 'Segoe UI', 'Liberation Sans', Arial, sans-serif" font-size="12" font-weight="700" fill="#ffffff" text-anchor="middle">3</text><text x="392" y="182.5" font-family="Inter, 'Segoe UI', 'Liberation Sans', Arial, sans-serif" font-size="11" font-weight="700" fill="#e2e8f0" text-anchor="start">Pick the USB, then Install</text><text x="30" y="38" font-family="Inter, 'Segoe UI', 'Liberation Sans', Arial, sans-serif" font-size="17" font-weight="700" fill="#e2e8f0" text-anchor="start">Start the Spark from the stick</text><text x="30" y="56" font-family="Inter, 'Segoe UI', 'Liberation Sans', Arial, sans-serif" font-size="11" font-weight="500" fill="#94a3b8" text-anchor="start">With a keyboard and screen plugged into the Spark. Takes 25–30 minutes.</text></g></svg>