<svg xmlns="http://www.w3.org/2000/svg" xmlns:xlink="http://www.w3.org/1999/xlink" width="600" height="270" viewBox="0 0 600 270"><defs>
<linearGradient id="bg" x1="0" y1="0" x2="1" y2="1"><stop offset="0" stop-color="#1b2040"/><stop offset="1" stop-color="#0f2b38"/></linearGradient>
<linearGradient id="brand" x1="0" y1="0" x2="1" y2="1"><stop offset="0" stop-color="#4338ca"/><stop offset="0.55" stop-color="#2563eb"/><stop offset="1" stop-color="#06b6d4"/></linearGradient>
<linearGradient id="brandH" x1="0" y1="0" x2="1" y2="0"><stop offset="0" stop-color="#4338ca"/><stop offset="0.55" stop-color="#2563eb"/><stop offset="1" stop-color="#06b6d4"/></linearGradient>
<pattern id="mesh" width="5" height="5" patternUnits="userSpaceOnUse"><rect width="5" height="5" fill="#c09a57"/><circle cx="2.5" cy="2.5" r="1.25" fill="#e9d4a4" opacity="0.8"/></pattern>
<clipPath id="frame"><rect x="0" y="0" width="600" height="270" rx="18"/></clipPath>
</defs><g clip-path="url(#frame)"><rect width="600" height="270" fill="url(#bg)"/><circle cx="560" cy="30" r="90" fill="#312e81" opacity="0.35"/><circle cx="40" cy="260" r="70" fill="#155e75" opacity="0.3"/><circle cx="330.0" cy="300" r="60" fill="#312e81" opacity="0.18"/><ellipse cx="125.496" cy="215.48" rx="73.16" ry="6.796799999999999" fill="#000000" opacity="0.5599999999999999"/><path d="M58,168 L72.16,156.2 L190.16,156.2 L176,168 Z" fill="#e6cf9f" stroke="#a88549" stroke-width="1" stroke-linecap="round" stroke-linejoin="round"/><path d="M176,168 L190.16,156.2 L190.16,198.67999999999998 L176,210.48 Z" fill="#a17c3f" stroke="#8a6a33" stroke-width="1" stroke-linecap="round" stroke-linejoin="round"/><rect x="58" y="168" width="118" height="42.48" rx="0" fill="#c9a462" stroke="#8a6a33" stroke-width="1" /><rect x="61" y="171" width="112" height="36.48" rx="0" fill="url(#mesh)" /><circle cx="167" cy="203.48" r="2.3" fill="#4ade80"/><circle cx="167" cy="203.48" r="4.5" fill="#4ade80" opacity="0.25"/><circle cx="125" cy="128" r="3.3000000000000003" fill="#60a5fa"/><path d="M117.44,120.65 A10.5,10.5 0 0 1 132.56,120.65" fill="none" stroke="#60a5fa" stroke-width="3.5999999999999996" stroke-linecap="round" stroke-linejoin="round"/><path d="M111.5,114.875 A18.75,18.75 0 0 1 138.5,114.875" fill="none" stroke="#60a5fa" stroke-width="3.5999999999999996" stroke-linecap="round" stroke-linejoin="round" opacity="0.8200000000000001"/><path d="M105.56,109.1 A27.0,27.0 0 0 1 144.44,109.1" fill="none" stroke="#60a5fa" stroke-width="3.5999999999999996" stroke-linecap="round" stroke-linejoin="round" opacity="0.64"/><text x="125" y="238" font-family="'JetBrains Mono', 'Cascadia Mono', Consolas, 'DejaVu Sans Mono', monospace" font-size="11" font-weight="700" fill="#e2e8f0" text-anchor="middle">spark-3f2a</text><text x="125" y="252" font-family="Inter, 'Segoe UI', 'Liberation Sans', Arial, sans-serif" font-size="9.5" font-weight="500" fill="#94a3b8" text-anchor="middle">broadcasts its own Wi-Fi</text><rect x="301" y="74" width="230" height="146.0" rx="8" fill="#000000" opacity="0.35" /><rect x="300" y="70" width="230" height="138.0" rx="8" fill="#334155" /><rect x="307" y="77" width="216" height="126.0" rx="3" fill="url(#brand)" /><path d="M283.9,217.0 L546.1,217.0 L530,208.0 L300,208.0 Z" fill="#94a3b8"/><rect x="396.6" y="209.5" width="36.800000000000004" height="3" rx="1.5" fill="#64748b" /><rect x="317" y="87" width="16" height="14" rx="3" fill="#ffffff" opacity="0.55" /><rect x="317" y="111" width="16" height="14" rx="3" fill="#ffffff" opacity="0.55" /><rect x="317" y="135" width="16" height="14" rx="3" fill="#ffffff" opacity="0.55" /><rect x="378" y="89" width="138" height="110.0" rx="6" fill="#000000" opacity="0.35" /><rect x="377" y="85" width="138" height="110.0" rx="6" fill="#1e293b" stroke="#3e4f69" stroke-width="1" /><text x="387" y="101" font-family="Inter, 'Segoe UI', 'Liberation Sans', Arial, sans-serif" font-size="9.5" font-weight="700" fill="#e2e8f0" text-anchor="start">Wi-Fi</text><rect x="381" y="109" width="130" height="23" rx="4" fill="#1e3a8a" /><circle cx="392" cy="125" r="0.8360000000000001" fill="#60a5fa"/><path d="M390.0848,123.138 A2.66,2.66 0 0 1 393.9152,123.138" fill="none" stroke="#60a5fa" stroke-width="0.9119999999999999" stroke-linecap="round" stroke-linejoin="round"/><path d="M388.58,121.675 A4.75,4.75 0 0 1 395.42,121.675" fill="none" stroke="#60a5fa" stroke-width="0.9119999999999999" stroke-linecap="round" stroke-linejoin="round" opacity="0.8200000000000001"/><path d="M387.0752,120.212 A6.84,6.84 0 0 1 396.9248,120.212" fill="none" stroke="#60a5fa" stroke-width="0.9119999999999999" stroke-linecap="round" stroke-linejoin="round" opacity="0.64"/><text x="403" y="124" font-family="Inter, 'Segoe UI', 'Liberation Sans', Arial, sans-serif" font-size="9" font-weight="700" fill="#e2e8f0" text-anchor="start">spark-3f2a</text><circle cx="392" cy="150" r="0.8360000000000001" fill="#94a3b8"/><path d="M390.0848,148.138 A2.66,2.66 0 0 1 393.9152,148.138" fill="none" stroke="#94a3b8" stroke-width="0.9119999999999999" stroke-linecap="round" stroke-linejoin="round"/><path d="M388.58,146.675 A4.75,4.75 0 0 1 395.42,146.675" fill="none" stroke="#94a3b8" stroke-width="0.9119999999999999" stroke-linecap="round" stroke-linejoin="round" opacity="0.8200000000000001"/><path d="M387.0752,145.212 A6.84,6.84 0 0 1 396.9248,145.212" fill="none" stroke="#94a3b8" stroke-width="0.9119999999999999" stroke-linecap="round" stroke-linejoin="round" opacity="0.64"/><text x="403" y="149" font-family="Inter, 'Segoe UI', 'Liberation Sans', Arial, sans-serif" font-size="9" font-weight="500" fill="#e2e8f0" text-anchor="start">Home-WiFi</text><circle cx="392" cy="175" r="0.8360000000000001" fill="#94a3b8"/><path d="M390.0848,173.138 A2.66,2.66 0 0 1 393.9152,173.138" fill="none" stroke="#94a3b8" stroke-width="0.9119999999999999" stroke-linecap="round" stroke-linejoin="round"/><path d="M388.58,171.675 A4.75,4.75 0 0 1 395.42,171.675" fill="none" stroke="#94a3b8" stroke-width="0.9119999999999999" stroke-linecap="round" stroke-linejoin="round" opacity="0.8200000000000001"/><path d="M387.0752,170.212 A6.84,6.84 0 0 1 396.9248,170.212" fill="none" stroke="#94a3b8" stroke-width="0.9119999999999999" stroke-linecap="round" stroke-linejoin="round" opacity="0.64"/><text x="403" y="174" font-family="Inter, 'Segoe UI', 'Liberation Sans', Arial, sans-serif" font-size="9" font-weight="500" fill="#e2e8f0" text-anchor="start">Neighbor-5G</text><rect x="463" y="113" width="44" height="15" rx="4" fill="url(#brand)" /><text x="485" y="123.5" font-family="Inter, 'Segoe UI', 'Liberation Sans', Arial, sans-serif" font-size="7.5" font-weight="700" fill="#ffffff" text-anchor="middle">Connect</text><path d="M489,122 L489,134.8 L492.36,131.76 L494.6,136.8 L496.68,135.84 L494.44,130.96 L498.6,130.96 Z" fill="#ffffff" stroke="#0f172a" stroke-width="0.96" stroke-linecap="round" stroke-linejoin="round"/><path d="M190,120 C230,96 262,96 296,112" fill="none" stroke="#60a5fa" stroke-width="2" stroke-linecap="round" stroke-linejoin="round" stroke-dasharray="3 5"/><text x="30" y="38" font-family="Inter, 'Segoe UI', 'Liberation Sans', Arial, sans-serif" font-size="17" font-weight="700" fill="#e2e8f0" text-anchor="start">Join the Spark's own Wi-Fi</text><text x="30" y="56" font-family="Inter, 'Segoe UI', 'Liberation Sans', Arial, sans-serif" font-size="11" font-weight="500" fill="#94a3b8" text-anchor="start">Use the network name and password from the sticker.</text></g></svg>