<svg xmlns="http://www.w3.org/2000/svg" xmlns:xlink="http://www.w3.org/1999/xlink" width="600" height="270" viewBox="0 0 600 270"><defs>
<linearGradient id="bg" x1="0" y1="0" x2="1" y2="1"><stop offset="0" stop-color="#eef2ff"/><stop offset="1" stop-color="#e3f6fb"/></linearGradient>
<linearGradient id="brand" x1="0" y1="0" x2="1" y2="1"><stop offset="0" stop-color="#4338ca"/><stop offset="0.55" stop-color="#2563eb"/><stop offset="1" stop-color="#06b6d4"/></linearGradient>
<linearGradient id="brandH" x1="0" y1="0" x2="1" y2="0"><stop offset="0" stop-color="#4338ca"/><stop offset="0.55" stop-color="#2563eb"/><stop offset="1" stop-color="#06b6d4"/></linearGradient>
<pattern id="mesh" width="5" height="5" patternUnits="userSpaceOnUse"><rect width="5" height="5" fill="#c09a57"/><circle cx="2.5" cy="2.5" r="1.25" fill="#e9d4a4" opacity="0.8"/></pattern>
<clipPath id="frame"><rect x="0" y="0" width="600" height="270" rx="18"/></clipPath>
</defs><g clip-path="url(#frame)"><rect width="600" height="270" fill="url(#bg)"/><circle cx="560" cy="30" r="90" fill="#c7d2fe" opacity="0.35"/><circle cx="40" cy="260" r="70" fill="#a5f3fc" opacity="0.3"/><circle cx="330.0" cy="300" r="60" fill="#c7d2fe" opacity="0.18"/><ellipse cx="110.352" cy="174.76" rx="71.92" ry="6.6815999999999995" fill="#1e293b" opacity="0.16000000000000003"/><path d="M44,128 L57.92,116.4 L173.92,116.4 L160,128 Z" fill="#e6cf9f" stroke="#a88549" stroke-width="1" stroke-linecap="round" stroke-linejoin="round"/><path d="M160,128 L173.92,116.4 L173.92,158.16 L160,169.76 Z" fill="#a17c3f" stroke="#8a6a33" stroke-width="1" stroke-linecap="round" stroke-linejoin="round"/><rect x="44" y="128" width="116" height="41.76" rx="0" fill="#c9a462" stroke="#8a6a33" stroke-width="1" /><rect x="47" y="131" width="110" height="35.76" rx="0" fill="url(#mesh)" /><circle cx="151" cy="162.76" r="2.3" fill="#4ade80"/><circle cx="151" cy="162.76" r="4.5" fill="#4ade80" opacity="0.25"/><text x="108" y="196" font-family="Inter, 'Segoe UI', 'Liberation Sans', Arial, sans-serif" font-size="12.5" font-weight="700" fill="#1e293b" text-anchor="middle">DGX Spark</text><text x="108" y="211" font-family="Inter, 'Segoe UI', 'Liberation Sans', Arial, sans-serif" font-size="10.5" font-weight="500" fill="#64748b" text-anchor="middle">plus its power adapter</text><ellipse cx="264" cy="145" rx="44" ry="5" fill="#1e293b" opacity="0.15000000000000002"/><path d="M238,122 L232,98" fill="none" stroke="#475569" stroke-width="3.2" stroke-linecap="round" stroke-linejoin="round"/><path d="M290,122 L296,98" fill="none" stroke="#475569" stroke-width="3.2" stroke-linecap="round" stroke-linejoin="round"/><rect x="226" y="120" width="76" height="22" rx="6" fill="#334155" /><rect x="226" y="120" width="76" height="8" rx="4" fill="#475569" /><circle cx="240" cy="135" r="2" fill="#4ade80"/><circle cx="249" cy="135" r="2" fill="#4ade80"/><circle cx="258" cy="135" r="2" fill="#4ade80"/><circle cx="267" cy="135" r="2" fill="#60a5fa"/><circle cx="264" cy="86" r="2.3100000000000005" fill="#2563eb"/><path d="M258.708,80.855 A7.3500000000000005,7.3500000000000005 0 0 1 269.292,80.855" fill="none" stroke="#2563eb" stroke-width="2.52" stroke-linecap="round" stroke-linejoin="round"/><path d="M254.55,76.8125 A13.125,13.125 0 0 1 273.45,76.8125" fill="none" stroke="#2563eb" stroke-width="2.52" stroke-linecap="round" stroke-linejoin="round" opacity="0.8200000000000001"/><path d="M250.392,72.77 A18.900000000000002,18.900000000000002 0 0 1 277.608,72.77" fill="none" stroke="#2563eb" stroke-width="2.52" stroke-linecap="round" stroke-linejoin="round" opacity="0.64"/><text x="264" y="196" font-family="Inter, 'Segoe UI', 'Liberation Sans', Arial, sans-serif" font-size="12.5" font-weight="700" fill="#1e293b" text-anchor="middle">Your home network</text><text x="264" y="211" font-family="Inter, 'Segoe UI', 'Liberation Sans', Arial, sans-serif" font-size="10.5" font-weight="500" fill="#64748b" text-anchor="middle">Wi-Fi, or a network cable</text><rect x="357" y="94" width="104" height="70.4" rx="8" fill="#1e293b" opacity="0.1" /><rect x="356" y="90" width="104" height="62.4" rx="8" fill="#334155" /><rect x="363" y="97" width="90" height="50.4" rx="3" fill="#ffffff" /><path d="M348.72,161.4 L467.28,161.4 L460,152.4 L356,152.4 Z" fill="#94a3b8"/><rect x="399.68" y="153.9" width="16.64" height="3" rx="1.5" fill="#64748b" /><rect x="371" y="105" width="74" height="8" rx="3" fill="#dbeafe" /><rect x="371" y="119" width="49.50000000000001" height="5" rx="2.5" fill="#e2e8f0" /><rect x="371" y="128" width="62.99999999999999" height="5" rx="2.5" fill="#e2e8f0" /><circle cx="440" cy="135.4" r="7" fill="url(#brand)"/><text x="408" y="196" font-family="Inter, 'Segoe UI', 'Liberation Sans', Arial, sans-serif" font-size="12.5" font-weight="700" fill="#1e293b" text-anchor="middle">This PC with DSH</text><text x="408" y="211" font-family="Inter, 'Segoe UI', 'Liberation Sans', Arial, sans-serif" font-size="10.5" font-weight="500" fill="#64748b" text-anchor="middle">on the same network</text><rect x="489" y="74" width="100" height="184" rx="12" fill="#1e293b" opacity="0.1" /><rect x="488" y="70" width="100" height="184" rx="12" fill="#ffffff" stroke="#cbd5e1" stroke-width="1" /><text x="538" y="90" font-family="Inter, 'Segoe UI', 'Liberation Sans', Arial, sans-serif" font-size="8.5" font-weight="700" fill="#64748b" text-anchor="middle" letter-spacing="0.8">ONLY TO</text><text x="538" y="102" font-family="Inter, 'Segoe UI', 'Liberation Sans', Arial, sans-serif" font-size="8.5" font-weight="700" fill="#64748b" text-anchor="middle" letter-spacing="0.8">REINSTALL</text><g transform="translate(508,114) rotate(0)"><rect x="0" y="0" width="45.24" height="18.72" rx="4.68" fill="url(#brand)" /><rect x="45.24" y="3.12" width="14.040000000000001" height="12.48" rx="1.17" fill="#cbd5e1" stroke="#94a3b8" stroke-width="1" /><rect x="51.480000000000004" y="6.24" width="3.12" height="2.34" rx="0" fill="#64748b" /><rect x="51.480000000000004" y="10.14" width="3.12" height="2.34" rx="0" fill="#64748b" /><circle cx="4.68" cy="9.36" r="1.9500000000000002" fill="#ffffff" opacity="0.35"/><text x="22.62" y="12.168" font-family="Inter, 'Segoe UI', 'Liberation Sans', Arial, sans-serif" font-size="6.24" font-weight="700" fill="#ffffff" text-anchor="middle" letter-spacing="0.5">16 GB+</text></g><rect x="504" y="152" width="70" height="40" rx="6" fill="#1e293b" opacity="0.1" /><rect x="503" y="148" width="70" height="40" rx="6" fill="#e2e8f0" stroke="#cbd5e1" stroke-width="1" /><rect x="509.0" y="153" width="3.1" height="13" rx="2.5" fill="#ffffff" stroke="#cbd5e1" stroke-width="1" /><rect x="515.1" y="153" width="3.1" height="13" rx="2.5" fill="#ffffff" stroke="#cbd5e1" stroke-width="1" /><rect x="521.2" y="153" width="3.1" height="13" rx="2.5" fill="#ffffff" stroke="#cbd5e1" stroke-width="1" /><rect x="527.3" y="153" width="3.1" height="13" rx="2.5" fill="#ffffff" stroke="#cbd5e1" stroke-width="1" /><rect x="533.4" y="153" width="3.1" height="13" rx="2.5" fill="#ffffff" stroke="#cbd5e1" stroke-width="1" /><rect x="539.5" y="153" width="3.1" height="13" rx="2.5" fill="#ffffff" stroke="#cbd5e1" stroke-width="1" /><rect x="545.6" y="153" width="3.1" height="13" rx="2.5" fill="#ffffff" stroke="#cbd5e1" stroke-width="1" /><rect x="551.7" y="153" width="3.1" height="13" rx="2.5" fill="#ffffff" stroke="#cbd5e1" stroke-width="1" /><rect x="557.8" y="153" width="3.1" height="13" rx="2.5" fill="#ffffff" stroke="#cbd5e1" stroke-width="1" /><rect x="563.9" y="153" width="3.1" height="13" rx="2.5" fill="#ffffff" stroke="#cbd5e1" stroke-width="1" /><rect x="509.0" y="169" width="3.1" height="13" rx="2.5" fill="#ffffff" stroke="#cbd5e1" stroke-width="1" /><rect x="515.1" y="169" width="3.1" height="13" rx="2.5" fill="#ffffff" stroke="#cbd5e1" stroke-width="1" /><rect x="521.2" y="169" width="3.1" height="13" rx="2.5" fill="#ffffff" stroke="#cbd5e1" stroke-width="1" /><rect x="527.3" y="169" width="3.1" height="13" rx="2.5" fill="#ffffff" stroke="#cbd5e1" stroke-width="1" /><rect x="533.4" y="169" width="3.1" height="13" rx="2.5" fill="#ffffff" stroke="#cbd5e1" stroke-width="1" /><rect x="539.5" y="169" width="3.1" height="13" rx="2.5" fill="#ffffff" stroke="#cbd5e1" stroke-width="1" /><rect x="545.6" y="169" width="3.1" height="13" rx="2.5" fill="#ffffff" stroke="#cbd5e1" stroke-width="1" /><rect x="551.7" y="169" width="3.1" height="13" rx="2.5" fill="#ffffff" stroke="#cbd5e1" stroke-width="1" /><rect x="557.8" y="169" width="3.1" height="13" rx="2.5" fill="#ffffff" stroke="#cbd5e1" stroke-width="1" /><rect x="563.9" y="169" width="3.1" height="13" rx="2.5" fill="#ffffff" stroke="#cbd5e1" stroke-width="1" /><rect x="515" y="196" width="46" height="24" rx="3" fill="#1f2937" /><rect x="519" y="200" width="38" height="16" rx="1.5" fill="#0f172a" /><rect x="535" y="220" width="6" height="4" rx="0" fill="#475569" /><text x="538" y="236" font-family="Inter, 'Segoe UI', 'Liberation Sans', Arial, sans-serif" font-size="8.5" font-weight="600" fill="#64748b" text-anchor="middle">USB stick 16 GB+,</text><text x="538" y="247" font-family="Inter, 'Segoe UI', 'Liberation Sans', Arial, sans-serif" font-size="8.5" font-weight="600" fill="#64748b" text-anchor="middle">keyboard, screen</text><text x="30" y="38" font-family="Inter, 'Segoe UI', 'Liberation Sans', Arial, sans-serif" font-size="17" font-weight="700" fill="#1e293b" text-anchor="start">What you need</text><text x="30" y="56" font-family="Inter, 'Segoe UI', 'Liberation Sans', Arial, sans-serif" font-size="11" font-weight="500" fill="#64748b" text-anchor="start">About 20 minutes, and nothing to type in a terminal.</text></g></svg>